<svg version="1.2" xmlns="http://www.w3.org/2000/svg" viewBox="0 0 599 695" width="40" height="40">
    <style>
        .s0 { opacity: .28;fill: #1b304a }
        .s1 { opacity: .6;fill: #242718 }
        .s2 { opacity: .63;fill: #1b3342 }
        .s3 { opacity: .99;fill: #464541 }
        .s4 { opacity: 1;fill: #895920 }
        .s5 { opacity: 1;fill: #233140 }
        .s6 { opacity: 1;fill: #1e6f91 }
        .s7 { opacity: 1;fill: #1d75ba }
        .s8 { opacity: 1;fill: #666565 }
        .s9 { opacity: 1;fill: #f15c0d }
        .s10 { opacity: 1;fill: #8a8888 }
        .s11 { opacity: 1;fill: #e5e5e5 }
        .s12 { opacity: 1;fill: #282825 }
        .s13 { opacity: 1;fill: #171818 }
        .s14 { opacity: 1;fill: #cdcccd }
        .s15 { opacity: 1;fill: #b8b7b8 }
    </style>
    <g id="Background">
        <path id="Path 0" class="s0" d="m280 638v-1h13v1z"/>
        <path id="Path 1" class="s1" d="m353 42v-11h1zm-154 195l1-4v4z"/>
        <path id="Path 2" fill-rule="evenodd" class="s2" d="m160 544v-2l2 2zm88 93l-3-1h3zm73 0v-1h2z"/>
        <path id="Path 3" class="s3" d="m583 93l8-12 8-2v14l-7 2zm-31 43l12-12 2 1-10 11zm45 55l2-5v5zm-98 48l7-7 1 6v1l-12 14-18 20-3-5zm56 9l3 1 10-11h5l-18 20-13 5-2-2 3-3 1-2zm-54 12l11-9 7 10h15l3 4-47 19-4-4v-6z"/>
        <path id="Path 4" fill-rule="evenodd" class="s4" d="m353 31l-3-16h2l4 6-2 10zm-153 225l-1-19h1zm71 92h3v-3l7 10z"/>
        <path id="Path 5" class="s5" d="m562 108l4-4v-8l4 1 6-6 7 2 9 2 7-2v20l-12 2-3 11-7 8h-1l-5-5-5-4-2-1-1-10v-3l-2-3zm-257 529l16-1v1zm-57 0v-1l13 1z"/>
        <path id="Path 6" class="s6" d="m467 551l3-8 3 8zm-301 72l-18-5 2-2 16 3z"/>
        <path id="Path 7" class="s7" d="m64 571l9-10 23-12 37-7h27v2l-19 4-27 11-7 6 2 8 20 7 28 4 77 4 5 1h42l8-1 45-1 3-1 39-2 54-9 27-11 8-7 2-6h6l-1 11-10 10-38 15-48 10-83 9-141-1 1-2-65-10-15-6-9-9zm102 48l54 6h81l72-6 73-14 32-13 23-16-6 14-10 10-34 16-48 12-80 8h-2l-16 1h-12-13-19l-13-1h-3l-45-4-34-9z"/>
        <path id="Path 8" class="s8" d="m499 189l38-38v8l3 2-32 33-3-4zm44 69l-3-1 4-2v1zm-84 28l15-18 3 5-7 10-10 11-2 4 4-3 10-10 14-11v6l4 4-44 32-8-2 8-10z"/>
        <path id="Path 9" class="s9" d="m354 31l2-10 6 20 1 4v20l-1 4-8 31-18 30-35 37-45 40-19 35-2 22 7 29 14 27 18 25v3h-3l-4-3-1-1-12-9-31-34-17-26-6-19v-19-4l10-25 14-17 13-13 67-51 24-24 17-27 6-16 2-18z"/>
        <path id="Path 10" class="s10" d="m552 136h4l10-11 5 4-31 32-3-2v-8zm43 43l4-4v11l-2 5-42 57-11 8v-1zm-111 34l4-14 11-10 6 1 3 4-20 20zm23 25l5-7 7 1 5-11 10 1-20 25-7-8z"/>
        <path id="Path 11" class="s11" d="m540 161l31-32 5 5-48 55-8 2-26 23v12l5 13-25 29-15 18-2-5 27-68 4 1 20-20zm-80 133l10-11 2 2-10 10zm-19 11l2-2 3 1-8 10-1-1v-3l2-3 1-1z"/>
        <path id="Path 12" class="s12" d="m576 91l7-12 16-16v16l-8 2-8 12zm8 35l3-11 12-2v12zm-28 66l15 1 13-14h11l-51 76-4 2 3 1-3 3 2 2-5 2-3-4h-15l-7-10 2-4 20-25zm-50 40l3-4v-9l10-4 5 6-5 11-7-1-5 7z"/>
        <path id="Path 13" class="s13" d="m584 126l15-1v50l-4 4h-11l-13 14-15-1 32-45-11-13zm-29 122l42-57h2v18l-26 29h-5l-10 11z"/>
        <path id="Path 14" class="s14" d="m499 239l-5-13v-12l26-23 8-2-9 26-10 4v9l-3 4zm-22 34l18-20 6 7-15 14-14 11-2-2zm-34 30l14-22 2 5-13 18z"/>
        <path id="Path 15" fill-rule="evenodd" class="s15" d="m528 189l48-55h1l11 13-32 45-22 30-10-1-5-6zm-33 64l12-14 7 8-2 4-11 9zm-33 42l-4 3 2-4z"/>
        <path id="Path 16" class="s2" d="m348 391l-1-2 4 1z"/>
        <path id="Path 17" class="s4" d="m350 326v-17l2 13zm-84 18h1v1h-1z"/>
        <path id="Path 18" class="s6" d="m190 503l7-3-5 5z"/>
        <path id="Path 19" class="s7" d="m446 351l24 2 22 13 12 18 1 21-9 23-19 20-32 18-38 8 4-6 22-9 21-14 13-14 10-19v-27l-11-14-23-9h-23l7-7zm-223 66l-72-7-23-6-14-8-3-10 5-7 17-9 28-8 27-5h19l-33 12-18 12 4 8 23 6 40 4h42l83-8 3-1 55-5-23 14-20 7-42 8-51 3-3 1h-39zm62 66l-71-2-46-13-11-9-2-13 9-10 21-10 5 2-11 8 3 8 33 7 63 1 77-8 17 3 25 16-57 13-52 6zm-93 22l3 6 37 6h54l62-9 32 16-29 15-33 8-29 3-49-1-34-6-24-11-6-6-2-9 9-11 7-3z"/>
        <path id="Path 20" class="s9" d="m282 247l1-10 11-22 24-25 36-24 63-27-5 8-29 15-41 35-13 16-8 17-2 18 2 9 14 26 9 10 6 16v17 1l-2 4-3 5-12 18-26 26h-2l18-38v-9l-5-13-23-25-7-13h-3l-3-18-1-3v-11z"/>
        <path id="Path 21" class="s15" d="m440 305h1v1h-1zm-1 1h1v1h-1z"/>
    </g>
</svg>